# xmcd
#
# Track frame offsets:
#	150
#	14101
#	30219
#	51584
#	68280
#	81520
#	98131
#	112225
#	129928
#	142854
#	156060
#	182609
#	202717
#	233795
#
# Disc length: 3314 seconds
#
# Revision: 0
# Processed by: cddbd v1.5.2PL0 Copyright (c) Steve Scherf et al.
# Submitted via: EasyCDDAExtractor 16.0.6.1
#
DISCID=b00cf00e
DTITLE=Λέκκας Βασίλης - Όρθιοι-Β. Λέκκας 1
DYEAR=2004
DGENRE=Έντεχνη νεώτερη
TTITLE0=Τυχαίος
TTITLE1=Κάγκελα παντού
TTITLE2=Αινίγματα
TTITLE3=Ο μάγος
TTITLE4=Η μικρή χορεύτρια
TTITLE5=Γράμμα σε παλαιό συμφοιτητή
TTITLE6=Γκουεβάρα [Guevara]
TTITLE7=Κάστρα
TTITLE8=Χορός
TTITLE9=Ανάθεμα την ώρα
TTITLE10=Ζωτικό ψεύδος
TTITLE11=Στήσανε χορό τα χρόνια
TTITLE12=Καημέ
TTITLE13=Ηλιαχτίδα
EXTD=
EXTT0=
EXTT1=
EXTT2=
EXTT3=
EXTT4=
EXTT5=
EXTT6=
EXTT7=
EXTT8=
EXTT9=
EXTT10=
EXTT11=
EXTT12=
EXTT13=
PLAYORDER=
